<svg viewBox="0 0 30 43" xmlns="http://www.w3.org/2000/svg">
<path d="M13.6455 0.792969H15.4322C17.1252 0.792969 18.7447 1.09892 20.2418 1.66595C22.0775 2.35537 23.7256 3.42824 25.084 4.79075C27.14 6.85083 28.5474 9.56361 28.9554 12.5987C29.041 13.2024 29.0818 13.8143 29.0818 14.4425C29.0818 18.8809 26.9238 23.0418 23.2932 25.5996L22.563 26.1136L21.2168 25.1631L14.5348 20.4555C13.9433 20.0394 13.1315 20.4637 13.1315 21.1816V32.7589L2.49249 40.2486C1.4441 40.987 0 40.2364 0 38.9514V14.4425C0 12.7659 0.301873 11.1627 0.852588 9.68191C2.78621 4.49296 7.78751 0.792969 13.6455 0.792969Z" fill="url(#paint0_linear_674_729)"/>
<path d="M14.5347 20.4555L21.2167 25.1631L22.5629 26.1136L13.1355 32.7588V21.1816C13.1355 20.4636 13.9473 20.0435 14.5388 20.4555H14.5347Z" fill="#3185FF"/>
<path d="M22.563 26.1137L26.1977 28.6755C28.2374 30.1074 29.449 32.4408 29.449 34.9333C29.449 35.2841 29.4245 35.6309 29.3756 35.9695C29.1471 37.6705 28.3639 39.1922 27.2094 40.3466C26.4425 41.1095 25.5206 41.7091 24.4885 42.1007C23.6522 42.4149 22.7384 42.5862 21.792 42.5862H20.7844C17.4964 42.5862 14.6939 40.5139 13.6088 37.6053C13.2988 36.769 13.1274 35.8715 13.1274 34.9333V32.7549L22.5549 26.1096L22.563 26.1137Z" fill="#2EAFFF"/>
<defs>
<linearGradient id="paint0_linear_674_729" x1="14.5429" y1="40.5423" x2="14.5429" y2="0.792969" gradientUnits="userSpaceOnUse">
<stop stop-color="#2CE1FF"/>
<stop offset="1" stop-color="#2EAFFF"/>
</linearGradient>
</defs>
</svg>
